<svg width="1500" height="1500" viewBox="0 0 1500 1500" fill="none" xmlns="http://www.w3.org/2000/svg">
<g clip-path="url(#clip0_255_85)">
<mask id="mask0_255_85" style="mask-type:luminance" maskUnits="userSpaceOnUse" x="0" y="0" width="1500" height="1500">
<path d="M1500 0H0V1500H1500V0Z" fill="white"/>
</mask>
<g mask="url(#mask0_255_85)">
<path d="M226.94 1124.98C230.909 1142.06 257.356 1169.89 257.356 1169.89C257.356 1169.89 279.611 1194.24 295.895 1197.72C314.258 1201.64 329.516 1192.11 345.461 1178.51L345.532 1178.46L494.526 1065.14L475.445 979.403L400.552 985.833L385.475 985.841C385.475 985.841 367.096 987.365 332.146 1021.98C319.848 1034.16 291.718 1072.1 279.404 1108.33C254.347 1084.74 220.04 1095.36 226.94 1124.98Z" fill="white"/>
<g opacity="0.3">
<path d="M226.941 1124.98C230.91 1142.06 257.356 1169.89 257.356 1169.89C257.356 1169.89 279.611 1194.24 295.895 1197.72C314.258 1201.64 329.516 1192.11 345.461 1178.51L345.532 1178.46L494.526 1065.14L485.887 1026.32L336.892 1139.64L336.821 1139.69C320.877 1153.28 305.619 1162.82 287.255 1158.9C270.971 1155.42 248.716 1131.07 248.716 1131.07C248.716 1131.07 237.626 1119.41 228.725 1106.55C226.066 1111.34 225.207 1117.57 226.941 1124.98Z" fill="#102770"/>
</g>
<path d="M313.95 1203.65C307.83 1205.01 301.431 1205.16 294.62 1203.71C276.932 1199.93 255.258 1176.66 252.845 1174.02C250.102 1171.13 225.212 1144.55 220.981 1126.37C217.368 1110.85 223.241 1097.67 236.31 1092C252.211 1085.09 276.984 1091 293.546 1115.68C295.429 1118.49 294.681 1122.29 291.876 1124.17C289.063 1126.06 285.27 1125.3 283.388 1122.5C270.691 1103.58 252.166 1098.45 241.185 1103.22C233.664 1106.48 230.642 1113.91 232.897 1123.6C235.849 1136.28 254.758 1158.27 261.795 1165.68C267.708 1172.14 285.418 1189.23 297.175 1191.74C317.365 1196.05 333.698 1181.2 354.37 1162.38C367.446 1150.48 382.268 1136.99 400.068 1127.43C403.044 1125.83 406.753 1126.94 408.352 1129.92C409.951 1132.9 408.834 1136.61 405.858 1138.2C389.387 1147.05 375.772 1159.45 362.606 1171.43C346.727 1185.88 331.499 1199.74 313.95 1203.65Z" fill="#102770"/>
<path d="M281.895 1115.28C280.968 1115.49 279.982 1115.48 279.001 1115.22C275.736 1114.35 273.791 1111 274.658 1107.74C285.322 1067.56 314.107 1031.23 327.838 1017.63C363.352 982.467 382.856 979.914 384.97 979.74C388.336 979.46 391.293 981.963 391.572 985.33C391.848 988.658 389.399 991.599 386.092 991.922C385.532 992.007 368.316 994.768 336.447 1026.33C323.534 1039.11 296.472 1073.24 286.483 1110.88C285.876 1113.16 284.053 1114.8 281.895 1115.28Z" fill="#102770"/>
<path d="M355.513 1079.66C353.995 1079.99 352.343 1079.55 351.191 1078.35C350.955 1078.1 334.217 1060.99 306.744 1057.41C304.231 1057.08 302.459 1054.78 302.787 1052.26C303.115 1049.75 305.423 1047.98 307.93 1048.31C338.807 1052.33 357.074 1071.21 357.836 1072.02C359.582 1073.85 359.509 1076.76 357.673 1078.5C357.048 1079.1 356.298 1079.48 355.513 1079.66Z" fill="#102770"/>
<path d="M452.287 881.656C452.287 881.656 319.991 874.523 300.069 771.237C290.601 722.148 339.353 716.372 356.007 725.791C384.889 742.126 416.299 817.431 466.889 796.051L563.716 790.624L503.765 915.54L452.287 881.656Z" fill="white"/>
<path d="M503.88 916.508C503.653 916.534 503.422 916.481 503.229 916.353L451.967 882.612C448.733 882.398 416.909 879.976 383.276 866.079C350.606 852.582 309.485 825.202 299.112 771.421C294.497 747.498 303.728 735.144 312.286 728.992C325.813 719.267 346.063 719.045 356.486 724.942C365.857 730.242 375.507 741.668 385.722 753.765C407.755 779.856 432.732 809.435 466.51 795.152C466.613 795.109 466.722 795.085 466.835 795.078L563.661 789.651C564.006 789.631 564.335 789.795 564.526 790.082C564.718 790.368 564.745 790.735 564.595 791.046L504.645 915.961C504.522 916.215 504.297 916.403 504.026 916.478C503.978 916.492 503.929 916.502 503.88 916.508ZM333.123 723.351C326.175 724.174 319.108 726.489 313.423 730.575C305.329 736.395 296.607 748.142 301.026 771.052C311.231 823.96 351.764 850.94 383.971 864.256C418.979 878.731 452.01 880.664 452.339 880.682C452.512 880.691 452.679 880.746 452.823 880.841L503.369 914.112L562.123 791.69L467.112 797.015C462.568 798.92 458.182 800.071 453.945 800.573C425.537 803.942 403.756 778.142 384.233 755.023C374.133 743.063 364.593 731.767 355.527 726.639C350.16 723.604 341.734 722.331 333.123 723.351Z" fill="#102770"/>
<g opacity="0.3">
<path d="M563.715 790.621L503.761 915.534L452.285 881.653C452.285 881.653 319.985 874.519 300.065 771.235C298.824 764.79 298.582 759.106 299.159 754.094C341.747 855.293 464.609 834.763 464.609 834.763L495.476 876.537L535.965 792.184L563.715 790.621Z" fill="#102770"/>
</g>
<path d="M453.014 887.731C452.669 887.772 452.316 887.784 451.957 887.764C450.564 887.689 417.427 885.753 381.313 870.832C332.787 850.782 302.617 816.744 294.062 772.395C288.663 744.401 301.281 730.57 309.284 724.817C324.903 713.587 347.259 713.815 359.018 720.466C369.191 726.22 379.129 737.988 389.651 750.448C411.561 776.391 434.218 803.219 464.508 790.416C467.613 789.101 471.209 790.558 472.524 793.671C473.839 796.782 472.382 800.371 469.27 801.686C464.181 803.837 459.27 805.13 454.54 805.691C423.401 809.383 399.787 781.413 380.303 758.342C370.51 746.744 361.259 735.789 352.995 731.115C345.63 726.948 328.155 726.318 316.425 734.751C306.423 741.941 302.94 753.828 306.075 770.078C324.875 867.544 451.341 875.479 452.616 875.548C455.989 875.729 458.577 878.611 458.395 881.985C458.232 884.999 455.913 887.387 453.014 887.731Z" fill="#102770"/>
<path d="M1117.28 716.063L1108.69 738.147C1104.81 748.138 1095.75 755.187 1085.11 756.502C1053.43 760.417 1021.28 755.588 992.145 742.538C982.362 738.155 975.775 728.755 974.995 718.063L973.272 694.431" fill="#20A7D1"/>
<g opacity="0.5">
<path d="M1007.73 741.75C997.942 737.367 991.355 727.967 990.575 717.276L989.025 696.015L977.167 694.234L978.89 717.867C979.67 728.558 986.257 737.958 996.041 742.341C1023.08 754.456 1052.73 759.472 1082.18 757C1056.62 757.43 1031.19 752.263 1007.73 741.75Z" fill="white"/>
</g>
<g opacity="0.35">
<path d="M973.272 694.431L973.819 701.943L1080.28 717.935L1071.69 740.018C1068.36 748.573 1061.24 754.958 1052.58 757.446C1063.39 758.132 1074.27 757.841 1085.11 756.502C1095.75 755.188 1104.81 748.138 1108.69 738.147L1117.28 716.064L973.272 694.431Z" fill="#102770"/>
</g>
<path d="M942.895 594.017C905.33 592.009 837.586 620.474 843.059 756.883C843.13 758.673 845.377 759.448 846.533 758.08C859.111 743.201 917.665 672.842 966.55 682.084" fill="#EC1C24"/>
<g opacity="0.5">
<path d="M855.034 741.954C849.355 748.223 845.035 753.378 842.54 756.328C841.378 757.7 839.144 756.925 839.067 755.134C833.591 618.721 901.336 590.259 938.904 592.267L941.461 601.805C905.678 606.616 857.086 638.52 855.034 741.954Z" fill="white"/>
</g>
<path d="M845.466 764.888C844.451 764.94 843.416 764.8 842.405 764.453C839.225 763.361 837.081 760.484 836.947 757.128C834.305 691.274 847.884 643.161 877.31 614.126C903.115 588.663 932.008 587.31 943.221 587.909C946.596 588.089 949.184 590.971 949.004 594.345C948.824 597.718 945.922 600.315 942.57 600.126C932.968 599.614 908.235 600.798 885.904 622.835C860.971 647.437 848.252 689.866 848.894 745.95C906.159 680.741 944.963 671.778 967.686 676.073C971.007 676.701 973.188 679.901 972.561 683.221C971.934 686.543 968.715 688.724 965.415 688.094C948.741 684.94 911.81 690.264 851.805 761.319L851.204 762.03C849.727 763.78 847.648 764.778 845.466 764.888Z" fill="#102770"/>
<path d="M1175.46 628.952C1211.96 638.069 1270.42 685.493 1225.12 814.274C1224.52 815.963 1222.15 816.045 1221.44 814.397C1213.79 796.479 1176.29 711.692 1126.85 706.163" fill="#D25658"/>
<path d="M1223.4 816.559C1223.38 816.56 1223.37 816.56 1223.35 816.561C1222.12 816.601 1221.02 815.902 1220.55 814.78C1207.45 784.102 1172.09 712.202 1126.74 707.132C1126.2 707.071 1125.82 706.589 1125.88 706.055C1125.94 705.518 1126.43 705.134 1126.96 705.194C1173.32 710.379 1209.11 783.022 1222.34 814.014C1222.58 814.589 1223.12 814.617 1223.28 814.612C1223.4 814.612 1223.99 814.544 1224.2 813.949C1244.81 755.36 1245.97 706.301 1227.54 672.074C1211.2 641.72 1185.51 632.466 1175.22 629.898C1174.7 629.767 1174.38 629.238 1174.51 628.715C1174.64 628.194 1175.17 627.877 1175.7 628.005C1186.23 630.637 1212.55 640.111 1229.26 671.15C1247.95 705.872 1246.84 755.475 1226.04 814.597C1225.64 815.733 1224.61 816.498 1223.4 816.559Z" fill="#102770"/>
<path d="M1225.12 814.274C1224.52 815.959 1222.15 816.038 1221.44 814.391C1217.52 805.219 1205.77 778.495 1188.59 753.868C1172.36 730.59 1151.27 709.188 1127.37 706.235C1127.2 706.209 1127.02 706.196 1126.85 706.17L1127.14 705.7L1175.45 628.956C1185.7 631.516 1197.68 637.09 1208.6 646.652C1236.6 671.1 1257.71 721.629 1225.12 814.274Z" fill="#EC1C24"/>
<path d="M1202.48 654.908C1193.54 648.568 1184.29 644.624 1176.14 642.588L1135.05 707.865C1155.78 713.894 1174.12 733.116 1188.59 753.868C1204.3 721.255 1210.5 693.173 1210.55 669.422C1210.52 669.159 1210.49 668.898 1210.47 668.636C1209.87 663.141 1206.98 658.106 1202.48 654.908Z" fill="#102770"/>
<path d="M1223.67 821.694C1223.61 821.697 1223.57 821.699 1223.51 821.701C1220.15 821.81 1217.13 819.885 1215.82 816.798C1205.87 793.511 1170.02 717.146 1126.17 712.243C1122.81 711.867 1120.39 708.841 1120.77 705.483C1121.14 702.125 1124.15 699.703 1127.53 700.083C1172.06 705.063 1206.57 766.999 1222.72 802.185C1239.55 749.467 1239.68 705.48 1223.01 674.513C1207.21 645.162 1181.49 636.762 1173.98 634.886C1170.7 634.068 1168.71 630.747 1169.53 627.469C1170.34 624.193 1173.65 622.2 1176.94 623.017C1188.14 625.815 1216.1 635.868 1233.78 668.713C1253.46 705.259 1252.48 754.915 1230.89 816.304C1229.79 819.427 1226.96 821.528 1223.67 821.694Z" fill="#102770"/>
<path d="M1117.28 716.064C1117.28 716.064 1200.1 643.738 1213.49 477.452C1229.22 282.239 1121.89 195.239 1121.89 195.239C1121.89 195.239 993.736 246.866 951.412 438.084C915.359 600.965 973.272 694.431 973.272 694.431C1017.15 718.624 1068.24 726.298 1117.28 716.064Z" fill="white"/>
<path d="M1085.14 721.184C1046.23 723.152 1007.27 714.292 972.801 695.286C972.656 695.204 972.531 695.088 972.444 694.945C971.863 694.007 914.733 599.276 950.459 437.873C972.374 338.864 1017.69 277.937 1051.84 244.261C1088.88 207.737 1121.2 194.465 1121.52 194.335C1121.85 194.201 1122.23 194.258 1122.5 194.482C1122.77 194.701 1149.77 216.885 1174.44 262.679C1197.2 304.902 1222.61 376.452 1214.47 477.531C1201.19 642.306 1118.76 716.072 1117.93 716.797C1117.8 716.907 1117.65 716.983 1117.48 717.018C1106.77 719.253 1095.96 720.637 1085.14 721.184ZM973.973 693.704C1017.49 717.627 1068.21 725.246 1116.83 715.163C1121.22 711.168 1199.62 637.512 1212.52 477.374C1220.62 376.825 1195.38 305.678 1172.78 263.698C1150.02 221.429 1125.32 199.443 1121.72 196.37C1117.38 198.251 1087.3 212.008 1053.13 245.726C1019.19 279.212 974.165 339.805 952.364 438.295C917.644 595.154 970.95 688.596 973.973 693.704Z" fill="#102770"/>
<g opacity="0.3">
<path d="M1191.03 301.302C1193.38 311.416 1195.38 322.083 1196.99 333.27L1172.72 309.276L1159.86 286.497L1159.03 289.468C1159.03 289.468 1165.2 306.302 1171.6 333.624L1147.47 331.055L1035.28 313.299L998.766 324.908C998.766 324.908 1094.28 326.517 1149.61 349.305C1167.35 356.612 1179.69 373.109 1182.01 392.156C1189.71 455.313 1188.1 537.549 1149.03 608.962C1148.21 610.441 1147.39 611.895 1146.57 613.319C1146.51 613.407 1146.47 613.495 1146.41 613.583C1145.41 615.33 1144.41 617.021 1143.41 618.684C1142.62 619.981 1141.85 621.281 1141.04 622.57C1139.68 624.766 1138.33 626.899 1137 628.938C1117.23 659.217 1082.63 676.773 1046.56 674.349C1046.37 674.336 1046.18 674.323 1045.98 674.31C1015.84 672.202 986.265 663.582 959.397 648.774C959.397 648.774 954.508 640.873 948.444 625.677C958.427 670.475 973.265 694.434 973.265 694.434C1000.13 709.242 1029.71 717.862 1059.85 719.971C1078.95 721.307 1098.28 720.037 1117.28 716.068C1117.28 716.068 1200.11 643.74 1213.49 477.446C1219.43 403.641 1207.8 345.309 1191.03 301.302ZM1197.07 333.859C1197.76 338.667 1198.36 343.575 1198.88 348.583L1197.07 333.859Z" fill="#102770"/>
</g>
<path d="M1205.51 349.714C1138.86 324.656 1067.65 313.959 996.565 318.328C1050.38 224.048 1121.89 195.242 1121.89 195.242C1121.89 195.242 1181.77 243.785 1205.51 349.714Z" fill="#EC1C24"/>
<g opacity="0.5">
<path d="M1131.77 204.637C1125.7 198.332 1121.89 195.242 1121.89 195.242C1121.89 195.242 1050.38 224.048 996.565 318.328C1001.94 317.997 1007.32 317.783 1012.7 317.624C1063.55 234.758 1126.74 206.762 1131.77 204.637Z" fill="white"/>
</g>
<g opacity="0.3">
<path d="M1205.51 349.721C1138.86 324.654 1067.65 313.955 996.563 318.334C997.542 316.609 998.536 314.901 999.542 313.223C1050.32 305.041 1087.99 300.474 1131.83 306.618C1149.92 309.153 1164.22 291.387 1157.58 274.367C1145.07 242.307 1129.85 215.849 1116.4 197.787C1119.93 196.041 1121.9 195.244 1121.9 195.244C1121.9 195.244 1181.77 243.783 1205.51 349.721Z" fill="#102770"/>
</g>
<path d="M1205.82 355.824C1204.99 355.866 1204.16 355.741 1203.36 355.441C1137.08 330.521 1067.66 320.079 996.941 324.433C996.918 324.435 996.896 324.436 996.875 324.437C994.655 324.55 992.548 323.449 991.373 321.56C990.184 319.652 990.139 317.248 991.253 315.296C1034.2 240.056 1088.48 205.608 1109.82 194.289C1117.76 190.079 1127.36 191.52 1133.71 197.879C1150.78 214.969 1192.54 263.844 1211.48 348.377C1211.97 350.57 1211.22 352.856 1209.53 354.331C1208.47 355.245 1207.16 355.756 1205.82 355.824ZM1007.63 311.645C1072.29 309.089 1135.85 318.638 1196.9 340.076C1177.69 265.419 1140.63 222.112 1125.06 206.526C1122.53 203.997 1118.71 203.425 1115.55 205.097C1096.09 215.421 1047.93 245.926 1007.63 311.645Z" fill="#102770"/>
<path d="M1085.33 726.341C1071.03 727.064 1056.69 726.355 1042.42 724.211C1017.04 720.4 992.778 712.184 970.314 699.793C969.396 699.285 968.623 698.55 968.068 697.658C965.651 693.755 909.266 600.19 945.445 436.768C955.337 392.072 970.751 351.202 991.253 315.294C992.276 313.504 994.132 312.348 996.191 312.222C1068.57 307.752 1139.71 318.452 1207.59 343.963C1209.54 344.665 1211.03 346.316 1211.49 348.379C1220.54 388.726 1223.27 432.321 1219.59 477.95C1206.16 644.788 1124.76 717.655 1121.3 720.676C1120.51 721.366 1119.55 721.842 1118.53 722.056C1107.53 724.35 1096.44 725.778 1085.33 726.341ZM977.709 689.891C998.48 701.126 1020.85 708.601 1044.24 712.113C1067.61 715.624 1091.2 715.055 1114.37 710.419C1124.2 701.002 1195.24 628.014 1207.4 476.969C1210.87 433.785 1208.48 392.532 1200.26 354.289C1135.96 330.583 1068.68 320.46 1000.25 324.241C981.168 358.382 966.752 397.113 957.389 439.414C924.636 587.365 971.082 678.002 977.709 689.891Z" fill="#102770"/>
<path d="M1072.8 763.709C1044.3 765.15 1015.8 759.837 989.644 748.12C977.79 742.81 969.839 731.464 968.894 718.509L967.171 694.876C966.926 691.507 969.459 688.576 972.827 688.33C972.874 688.327 972.92 688.324 972.965 688.321C976.277 688.154 979.132 690.663 979.375 693.986L981.098 717.619C981.713 726.078 986.906 733.487 994.647 736.955C1022.76 749.549 1053.79 754.208 1084.36 750.431C1092.78 749.391 1099.92 743.834 1102.99 735.929L1111.58 713.845C1112.81 710.698 1116.35 709.137 1119.5 710.362C1122.65 711.587 1124.21 715.132 1122.98 718.281L1114.39 740.365C1109.69 752.471 1098.75 760.981 1085.86 762.573C1081.51 763.111 1077.15 763.488 1072.8 763.709Z" fill="#102770"/>
<path d="M1083.7 699.049C1076.74 745.354 1033.23 785.447 1033.23 785.447C1033.23 785.447 1033.11 785.252 1032.92 784.893C1029.75 779.257 1003.84 731.531 1010.35 688.044C1016.61 646.311 1051.83 617.315 1058.33 612.284C1059 611.77 1059.36 611.507 1059.36 611.507C1059.36 611.507 1090.64 653.058 1083.7 699.049Z" fill="#EC1C24"/>
<g opacity="0.5">
<path d="M1020.29 691.447C1025.72 655.257 1052.91 628.657 1064.28 618.946C1061.38 614.196 1059.36 611.507 1059.36 611.507C1059.36 611.507 1059 611.77 1058.33 612.284C1051.83 617.315 1016.61 646.311 1010.35 688.044C1003.84 731.531 1029.75 779.257 1032.92 784.893C1033.11 785.252 1033.23 785.447 1033.23 785.447C1033.23 785.447 1035.3 783.542 1038.6 780.088C1030.53 763.53 1015.09 726.15 1020.29 691.447Z" fill="white"/>
</g>
<path d="M1056.72 623.231L1033.73 779.405L1035.57 766.907C1048.92 751.079 1067.48 724.622 1071.82 695.744C1076.2 666.667 1065.32 639.38 1056.72 623.231Z" fill="#102770"/>
<path d="M1033.54 791.559C1033.14 791.579 1032.73 791.56 1032.32 791.499C1030.49 791.223 1028.88 790.132 1027.95 788.532C1026.69 786.369 997.132 735.014 1004.31 687.131C1011.51 639.138 1053.97 607.867 1055.77 606.559C1058.47 604.597 1062.24 605.169 1064.25 607.832C1065.59 609.612 1096.98 651.978 1089.76 699.966C1082.55 747.846 1039.22 788.252 1037.38 789.948C1036.32 790.924 1034.95 791.487 1033.54 791.559ZM1058.01 620.485C1047.09 629.925 1021.46 655.274 1016.41 688.944C1011.35 722.701 1027.22 759.926 1034.77 775.218C1046.47 762.817 1072.58 731.898 1077.66 698.145C1082.73 664.48 1065.68 632.723 1058.01 620.485Z" fill="#102770"/>
<g opacity="0.3">
<path d="M1168.31 446.412C1162.14 487.477 1123.85 515.766 1082.79 509.597C1041.72 503.429 1013.44 465.139 1019.6 424.074C1025.77 383.009 1064.06 354.72 1105.13 360.889C1146.19 367.057 1174.48 405.347 1168.31 446.412Z" fill="#102770"/>
</g>
<path d="M1153.62 439.188C1148.07 476.116 1113.64 501.555 1076.71 496.008C1039.78 490.461 1014.34 456.028 1019.89 419.101C1025.44 382.173 1059.87 356.734 1096.8 362.281C1133.72 367.828 1159.16 402.261 1153.62 439.188Z" fill="#EC1C24"/>
<g opacity="0.5">
<path d="M1027.97 424.55C1033.52 387.622 1067.95 362.183 1104.88 367.73C1113.44 369.016 1121.37 371.868 1128.45 375.927C1119.55 368.941 1108.78 364.083 1096.8 362.282C1059.87 356.735 1025.44 382.174 1019.89 419.101C1015.63 447.472 1029.67 474.354 1053.14 487.812C1034.63 473.278 1024.23 449.49 1027.97 424.55Z" fill="white"/>
</g>
<g opacity="0.3">
<path d="M1153.61 439.193C1148.06 476.109 1113.64 501.561 1076.71 496.013C1065.1 494.265 1054.62 489.659 1045.89 483.015C1050.54 484.838 1055.46 486.175 1060.61 486.953C1097.55 492.502 1131.98 467.066 1137.53 430.135C1141.33 404.816 1130.55 380.666 1111.5 366.217C1140.2 377.468 1158.38 407.405 1153.61 439.193Z" fill="#102770"/>
</g>
<path d="M1090.56 501.555C1085.75 501.799 1080.87 501.561 1075.98 500.828C1056.84 497.953 1039.95 487.792 1028.45 472.219C1016.94 456.646 1012.19 437.524 1015.07 418.377C1021.01 378.85 1057.99 351.523 1097.52 357.461C1116.67 360.336 1133.55 370.497 1145.05 386.07C1156.56 401.643 1161.31 420.765 1158.44 439.912C1155.56 459.06 1145.4 475.942 1129.83 487.448C1118.22 496.02 1104.65 500.843 1090.56 501.555ZM1083.56 366.48C1054.38 367.956 1029.22 389.832 1024.71 419.825C1022.22 436.397 1026.33 452.946 1036.29 466.425C1046.25 479.903 1060.86 488.698 1077.43 491.187C1111.63 496.324 1143.66 472.677 1148.8 438.464C1151.28 421.892 1147.17 405.343 1137.21 391.864C1127.26 378.386 1112.64 369.591 1096.07 367.102C1091.85 366.469 1087.67 366.272 1083.56 366.48Z" fill="#102770"/>
<path d="M1128.61 434.619C1125.08 458.112 1103.18 474.296 1079.69 470.767C1056.19 467.238 1040.01 445.332 1043.54 421.84C1047.07 398.347 1068.97 382.163 1092.47 385.692C1115.96 389.221 1132.14 411.127 1128.61 434.619Z" fill="#6BD6F0"/>
<path d="M1088.39 472.172C1085.47 472.32 1082.5 472.176 1079.54 471.731C1067.92 469.985 1057.68 463.819 1050.7 454.369C1043.71 444.918 1040.83 433.315 1042.57 421.695C1046.18 397.708 1068.61 381.123 1092.61 384.727C1104.23 386.474 1114.48 392.639 1121.46 402.09C1128.44 411.541 1131.32 423.145 1129.58 434.764C1127.83 446.384 1121.67 456.628 1112.22 463.61C1105.17 468.812 1096.94 471.74 1088.39 472.172ZM1083.94 386.239C1064.38 387.229 1047.52 401.887 1044.5 421.984C1042.83 433.088 1045.59 444.179 1052.26 453.21C1058.94 462.242 1068.73 468.134 1079.83 469.802C1090.94 471.471 1102.03 468.715 1111.06 462.042C1120.09 455.369 1125.98 445.578 1127.65 434.474C1129.32 423.37 1126.56 412.281 1119.89 403.248C1113.22 394.217 1103.43 388.324 1092.32 386.657C1089.49 386.232 1086.69 386.1 1083.94 386.239Z" fill="black"/>
<g opacity="0.4">
<path d="M1128.62 434.622C1125.09 458.117 1103.18 474.294 1079.69 470.765C1074.6 470.006 1069.85 468.378 1065.58 466.049C1066.05 466.139 1066.52 466.215 1067 466.293C1090.49 469.822 1112.4 453.645 1115.93 430.15C1118.7 411.742 1109.37 394.316 1093.9 385.934C1116.61 390.114 1132.07 411.611 1128.62 434.622Z" fill="white"/>
</g>
<g opacity="0.3">
<path d="M1109.8 391.725C1109.08 391.587 1108.35 391.45 1107.61 391.341C1084.12 387.812 1062.21 403.988 1058.68 427.483C1056.02 445.165 1064.53 461.958 1078.93 470.667C1056.62 466.141 1041.55 444.873 1044.97 422.119C1048.5 398.639 1070.4 382.446 1093.89 385.975C1099.7 386.857 1105.08 388.846 1109.8 391.725Z" fill="#102770"/>
</g>
<path d="M1088.6 476.067C1085.41 476.228 1082.19 476.072 1078.96 475.587C1066.31 473.687 1055.16 466.975 1047.56 456.687C1039.96 446.398 1036.82 433.766 1038.72 421.116C1042.64 395.003 1067.06 376.944 1093.19 380.871C1105.84 382.771 1116.99 389.484 1124.59 399.773C1132.2 410.061 1135.33 422.694 1133.43 435.343C1131.53 447.993 1124.82 459.145 1114.53 466.747C1106.87 472.41 1097.9 475.597 1088.6 476.067ZM1084.14 390.134C1066.39 391.032 1051.1 404.331 1048.36 422.563C1046.84 432.638 1049.35 442.699 1055.4 450.892C1061.45 459.086 1070.34 464.432 1080.41 465.946C1090.48 467.462 1100.55 464.959 1108.74 458.905C1116.94 452.852 1122.28 443.97 1123.79 433.895C1126.92 413.098 1112.54 393.637 1091.74 390.512C1089.18 390.127 1086.63 390.008 1084.14 390.134Z" fill="#102770"/>
<path d="M993.612 663.413C992.766 656.82 985.406 653.272 979.741 656.75C959.782 669.005 926.995 704.851 898.827 799.607C848.173 970.015 696.825 943.724 696.825 943.724L683.042 996.056C683.042 996.056 878.409 1009.72 926.862 801.568C947.536 712.755 978.203 680.699 989.984 671.939C992.648 669.958 994.034 666.706 993.612 663.413Z" fill="white"/>
<path d="M700.958 996.908C689.855 997.47 683.152 997.041 682.974 997.029C682.683 997.009 682.418 996.86 682.248 996.625C682.08 996.388 682.025 996.088 682.098 995.808L695.882 943.477C696.01 942.988 696.484 942.679 696.992 942.764C697.367 942.829 735.158 949.124 778.601 934.618C818.652 921.242 871.859 886.912 897.893 799.33C927.466 699.845 961.547 666.776 979.23 655.919C982.163 654.119 985.772 653.928 988.887 655.418C992.009 656.913 994.137 659.854 994.578 663.289C995.044 666.92 993.507 670.534 990.565 672.721C981.287 679.622 949.336 709.323 927.812 801.789C902.689 909.719 837.453 957.061 787.152 977.77C752.614 991.991 720.188 995.935 700.958 996.908ZM684.29 995.143C692.068 995.468 737.086 996.296 786.484 975.938C836.333 955.395 900.987 908.429 925.913 801.348C947.587 708.234 979.989 678.157 989.403 671.156C991.779 669.389 993.021 666.469 992.646 663.538C992.288 660.762 990.57 658.384 988.046 657.177C985.535 655.976 982.623 656.128 980.25 657.581C962.806 668.292 929.151 701.023 899.763 799.886C873.476 888.315 819.658 922.983 779.139 936.495C738.949 949.894 703.536 945.677 697.544 944.821L684.29 995.143Z" fill="#102770"/>
<g opacity="0.35">
<path d="M989.979 671.933C978.208 680.699 947.531 712.748 926.863 801.576C878.413 1009.72 683.041 996.053 683.041 996.053L689.881 970.098C720.706 970.526 876.762 982.924 923.253 774.497C938.475 706.252 971.364 675.078 987.972 661.053C993.455 658.615 992.821 657.245 993.613 663.419C994.031 666.702 992.651 669.96 989.979 671.933Z" fill="#102770"/>
</g>
<path d="M701.714 1002.09C690.387 1002.66 683.366 1002.21 682.614 1002.16C680.796 1002.03 679.13 1001.1 678.07 999.619C677.007 998.138 676.662 996.261 677.126 994.498L690.91 942.167C691.719 939.096 694.746 937.155 697.872 937.698C698.233 937.761 735.129 943.836 777.389 929.601C833.736 910.623 872.622 866.3 892.964 797.865C923.025 696.737 958.231 662.778 976.541 651.537C980.969 648.818 986.413 648.533 991.106 650.78C995.81 653.03 999.016 657.462 999.68 662.634L999.68 662.636C1000.38 668.107 998.064 673.552 993.634 676.847C984.709 683.484 953.948 712.192 932.821 802.956C907.201 913.017 840.529 961.356 789.111 982.526C753.873 997.035 721.336 1001.1 701.714 1002.09ZM690.936 990.106C706.457 990.032 744.204 987.881 784.907 971.025C855.573 941.759 901.329 884.28 920.905 800.182C942.975 705.366 976.565 674.295 986.334 667.03C987.22 666.371 987.686 665.282 987.544 664.191C987.352 662.697 986.28 662.032 985.826 661.816C985.273 661.55 984.156 661.217 982.941 661.964C966.122 672.29 933.592 704.13 904.692 801.35C877.775 891.901 822.444 927.474 780.766 941.373C745.133 953.254 713.771 951.768 701.371 950.481L690.936 990.106Z" fill="#102770"/>
<g opacity="0.5">
<path d="M1070.43 1386.42C1070.43 1397.14 926.966 1405.83 750 1405.83C573.033 1405.83 429.574 1397.14 429.574 1386.42C429.574 1375.7 573.033 1367.01 750 1367.01C926.966 1367.01 1070.43 1375.7 1070.43 1386.42Z" fill="#102770"/>
</g>
<path d="M649.112 1096.87C678.096 1107.84 733.099 1103.54 733.099 1103.54C753.857 1100.62 770.701 1085.27 775.541 1064.88L813.787 903.691C818.517 883.756 810.838 862.928 794.299 850.835L731.823 814.608" fill="white"/>
<g opacity="0.3">
<path d="M814.717 885.305L781.479 1025.37C776.65 1045.77 759.806 1061.12 739.042 1064.04C739.042 1064.04 718.511 1067.7 703.774 1037.53L649.116 1096.87L657.885 1087.35C687.876 1095.5 734.996 1091.83 734.996 1091.83C755.761 1088.91 772.606 1073.56 777.447 1053.17L815.104 894.439C814.953 897.522 814.517 900.617 813.787 903.69C815.245 897.557 815.532 891.334 814.717 885.305Z" fill="#102770"/>
</g>
<path d="M580.839 1073.15L649.111 1096.87C669.247 1103.87 691.01 1091.89 695.882 1071.14L746.55 855.315C750.934 836.64 739.376 817.94 720.711 813.511L646.618 795.93L580.839 1073.15Z" fill="white"/>
<path d="M661.049 1099.83C656.917 1099.85 652.77 1099.17 648.792 1097.79L580.519 1074.07C580.046 1073.91 579.775 1073.41 579.891 1072.93L645.668 795.704C645.728 795.453 645.885 795.236 646.105 795.1C646.325 794.963 646.594 794.918 646.842 794.982L720.935 812.563C740.08 817.105 751.995 836.384 747.499 855.538L696.832 1071.37C694.447 1081.53 687.835 1090.24 678.69 1095.27C673.238 1098.27 667.158 1099.81 661.049 1099.83ZM581.992 1072.52L649.432 1095.95C658.773 1099.2 669.09 1098.32 677.75 1093.56C686.411 1088.79 692.674 1080.54 694.933 1070.92L745.6 855.093C749.852 836.983 738.586 818.755 720.486 814.46L647.34 797.104L581.992 1072.52Z" fill="#102770"/>
<path d="M580.774 1056.87L583.787 1057.92L591.26 1012.69L580.774 1056.87Z" fill="white"/>
<path d="M583.791 1058.9C583.682 1058.9 583.572 1058.88 583.467 1058.84L580.453 1057.79C579.981 1057.63 579.709 1057.14 579.826 1056.65L590.311 1012.46C590.432 1011.95 590.928 1011.63 591.453 1011.73C591.967 1011.84 592.308 1012.33 592.223 1012.85L584.75 1058.08C584.702 1058.36 584.533 1058.61 584.285 1058.76C584.134 1058.85 583.964 1058.9 583.791 1058.9ZM581.926 1056.24L583.014 1056.62L585.712 1040.29L581.926 1056.24Z" fill="#102770"/>
<path d="M719.742 867.492C723.526 851.383 713.545 835.237 697.436 831.411L637.645 817.22L648.324 819.755L606.648 995.357L604.869 1002.88L597.396 1048.11L594.462 1065.92C594.462 1065.92 661.831 1091.45 678.362 1088.85C681.528 1088.35 684.952 1087.35 688.403 1085.78C697.242 1076.38 703.713 1061.42 702.364 1039.06C702.364 1039.06 697.202 1043.04 685.069 1041.33C685.059 1041.33 685.05 1041.33 685.04 1041.33C681.851 1040.86 679.785 1037.69 680.521 1034.56L719.742 867.492Z" fill="#102770"/>
<g opacity="0.4">
<path d="M591.26 1012.69L593.039 1005.17C592.712 1005.03 592.534 1004.96 592.534 1004.96L591.26 1012.69Z" fill="#293856"/>
<path d="M591.264 1013.66C591.2 1013.66 591.135 1013.66 591.068 1013.64C590.554 1013.54 590.212 1013.05 590.298 1012.53L591.571 1004.8C591.62 1004.52 591.794 1004.26 592.048 1004.12C592.303 1003.97 592.607 1003.95 592.882 1004.05L593.411 1004.26C593.853 1004.45 594.099 1004.92 593.988 1005.39L592.21 1012.91C592.103 1013.36 591.706 1013.66 591.264 1013.66Z" fill="#102770"/>
</g>
<path d="M709.71 1110.5C690.741 1110.58 664.589 1109.27 646.948 1102.59C643.787 1101.4 642.195 1097.87 643.389 1094.71C644.585 1091.55 648.117 1089.96 651.275 1091.15C677.822 1101.19 728.944 1097.71 732.439 1097.45C750.744 1094.8 765.314 1081.48 769.588 1063.46L807.836 902.278C811.983 884.796 805.353 866.652 790.94 855.96L728.755 819.899C725.832 818.205 724.836 814.461 726.531 811.539C728.227 808.617 731.967 807.62 734.891 809.316L797.366 845.544C797.554 845.653 797.735 845.77 797.908 845.898C816.482 859.477 825.049 882.716 819.739 905.103L781.491 1066.29C776.031 1089.3 757.37 1106.3 733.951 1109.6C733.828 1109.62 733.702 1109.63 733.576 1109.64C732.63 1109.71 722.908 1110.45 709.71 1110.5Z" fill="#102770"/>
<path d="M661.069 1104.97C656.36 1104.99 651.636 1104.22 647.105 1102.65L578.832 1078.93C575.867 1077.9 574.163 1074.79 574.887 1071.74L640.666 794.518C641.04 792.939 642.026 791.575 643.407 790.723C644.786 789.871 646.451 789.605 648.03 789.978L722.123 807.559C744.019 812.755 757.648 834.805 752.505 856.713L701.838 1072.54C699.12 1084.12 691.587 1094.04 681.168 1099.77C674.956 1103.19 668.03 1104.94 661.069 1104.97ZM588.067 1069.19L651.119 1091.09C659.083 1093.86 667.886 1093.12 675.273 1089.05C682.659 1084.99 688.001 1077.95 689.928 1069.74L740.594 853.917C744.199 838.562 734.646 823.105 719.299 819.463L651.156 803.295L588.067 1069.19Z" fill="#102770"/>
<path d="M353.473 1154.22C353.473 1154.22 377.733 1172.91 412.92 1145.42C422.718 1137.77 433.723 1119.46 441.091 1100.86C623.828 1169.67 697.59 1001.75 688.792 863.771C688.018 851.493 686.401 839.396 683.941 827.643C679.688 807.293 672.866 787.988 663.357 770.601L576.19 709.03C576.19 709.03 493.98 727.849 426.666 832.6C398.359 876.651 396.481 929.756 394.148 973.499C378.753 977.608 364.575 986.028 355.042 1001.48C340.803 1024.57 351.483 1089.78 351.483 1089.78C351.483 1089.78 319.361 1079.38 312.119 1105.13C304.876 1130.88 353.473 1154.22 353.473 1154.22Z" fill="white"/>
<g opacity="0.4">
<path d="M528.946 824.736C588.823 859.214 660.458 863.524 688.792 863.771C688.018 851.493 686.401 839.396 683.941 827.643L528.946 824.736Z" fill="#293856"/>
<path d="M688.796 864.747C688.792 864.747 688.788 864.747 688.782 864.747C660.601 864.5 588.565 860.19 528.459 825.581C528.073 825.359 527.887 824.905 528.006 824.475C528.126 824.047 528.546 823.785 528.964 823.761L683.96 826.669C684.414 826.677 684.803 826.999 684.897 827.444C687.348 839.166 688.986 851.367 689.764 863.71C689.781 863.981 689.685 864.246 689.499 864.442C689.317 864.636 689.062 864.746 688.796 864.747ZM532.785 825.783C591.055 858.018 659.562 862.449 687.749 862.786C686.971 851.16 685.423 839.669 683.146 828.604L532.785 825.783Z" fill="#102770"/>
</g>
<path d="M348.829 1067.68C349.96 1067.95 350.601 1068.16 350.601 1068.16C350.601 1068.16 348.784 1057.03 347.645 1042.34C347.629 1051.22 348.156 1060.07 348.829 1067.68Z" fill="white"/>
<path d="M350.604 1069.14C350.499 1069.14 350.393 1069.12 350.29 1069.09C350.269 1069.08 349.661 1068.88 348.605 1068.63C348.196 1068.53 347.895 1068.18 347.859 1067.76C347.056 1058.69 346.656 1050.14 346.671 1042.34C346.671 1041.82 347.086 1041.39 347.609 1041.37C348.077 1041.31 348.577 1041.75 348.618 1042.27C349.74 1056.74 351.545 1067.89 351.563 1068C351.618 1068.34 351.492 1068.68 351.232 1068.9C351.054 1069.06 350.831 1069.14 350.604 1069.14Z" fill="#102770"/>
<g opacity="0.3">
<path d="M353.473 1154.22C353.473 1154.22 377.733 1172.91 412.92 1145.42C422.718 1137.77 433.723 1119.46 441.091 1100.86C599.938 1161.08 696.398 1038.38 685.203 890.744C685.412 934.699 608.105 898.176 626.403 928.64C683.878 1024.33 555.877 1091.13 450.278 1055.28C442.34 1052.59 433.737 1056.98 431.183 1064.96C425.814 1081.75 416.843 1103.84 404.234 1117.2C373.583 1149.67 352.591 1132.61 352.591 1132.61C352.591 1132.61 323.736 1118.75 313.815 1100.6C313.153 1101.96 312.588 1103.48 312.118 1105.13C304.876 1130.88 353.473 1154.22 353.473 1154.22Z" fill="#102770"/>
</g>
<path d="M523.65 1122.83C497.45 1122.95 469.172 1117.28 439.352 1105.79C436.199 1104.58 434.629 1101.04 435.843 1097.88C437.057 1094.73 440.596 1093.16 443.75 1094.37C508.117 1119.17 564.43 1115.41 606.6 1083.52C664.84 1039.46 691.845 945.003 680.692 824.368C680.38 821.004 682.857 818.025 686.22 817.713C689.561 817.391 692.565 819.876 692.875 823.242C704.425 948.184 675.671 1046.61 613.983 1093.27C588.158 1112.81 557.654 1122.69 523.65 1122.83Z" fill="#102770"/>
<path d="M395.495 977.39C392.531 977.403 389.917 975.255 389.436 972.237C380.097 913.777 398.791 865 416.118 834.375C434.844 801.276 455.558 782.129 456.431 781.33C458.923 779.048 462.793 779.22 465.074 781.711C467.355 784.203 467.184 788.072 464.693 790.354C463.711 791.259 384.744 865.315 401.516 970.307C402.05 973.644 399.778 976.78 396.442 977.312C396.123 977.363 395.807 977.389 395.495 977.39Z" fill="#102770"/>
<path d="M722.032 781.804C732.662 785.935 746.244 820.274 708.026 839.406C679.294 853.789 607.276 850.056 528.944 824.736" fill="white"/>
<path d="M659.207 848.867C623.169 849.021 576.079 840.997 528.644 825.664C528.132 825.498 527.851 824.948 528.016 824.436C528.18 823.923 528.733 823.64 529.243 823.808C602.396 847.453 677.397 853.646 707.59 838.533C730.028 827.301 732.727 811.67 732.339 803.353C731.853 792.974 726.428 784.557 721.678 782.712C721.177 782.517 720.929 781.952 721.125 781.45C721.321 780.947 721.887 780.701 722.387 780.895C727.703 782.961 733.765 792.1 734.287 803.261C734.698 812.052 731.888 828.551 708.462 840.278C697.093 845.97 679.983 848.777 659.207 848.867Z" fill="#102770"/>
<path d="M722.032 781.804C732.662 785.935 746.244 820.274 708.026 839.406C679.294 853.789 607.276 850.056 528.944 824.736L722.032 781.804Z" fill="white"/>
<g opacity="0.3">
<path d="M726.088 784.712C727.597 797 722.462 812.544 701.009 823.282C676.608 835.503 620.932 834.652 556.695 818.573L726.088 784.712Z" fill="#102770"/>
</g>
<path d="M724.248 776.102C728.695 777.955 730.985 780.684 733.046 783.364C734.999 786.095 736.437 788.985 737.521 791.982C739.67 797.969 740.235 804.454 739.288 810.757C738.345 817.063 735.714 823.096 731.98 828.048C728.307 833.084 723.636 837.037 718.766 840.304C716.316 841.931 713.779 843.344 711.21 844.644C709.904 845.281 708.484 845.79 707.125 846.359C705.749 846.875 704.38 847.556 702.998 847.878C697.482 849.583 691.964 850.711 686.468 851.467C683.724 851.765 680.975 852.199 678.239 852.377L670.041 852.876C664.597 852.944 659.152 853.091 653.75 852.816C632.094 852.182 610.82 848.792 589.877 844.377C568.927 839.939 548.391 833.882 528.271 826.817C527.132 826.417 526.532 825.168 526.932 824.028C527.32 822.926 528.508 822.331 529.617 822.655C549.918 828.627 570.562 833.282 591.324 836.837L599.116 838.118C601.716 838.525 604.329 838.83 606.934 839.192C612.139 839.956 617.369 840.457 622.59 840.982C625.198 841.285 627.814 841.438 630.427 841.616C633.041 841.789 635.652 842.026 638.263 842.156C643.485 842.324 648.709 842.637 653.911 842.532C659.126 842.616 664.295 842.285 669.463 842.045L677.143 841.303C679.698 841.05 682.186 840.553 684.708 840.195C689.703 839.331 694.57 838.132 699.152 836.542C700.359 836.23 701.348 835.637 702.443 835.19C703.513 834.693 704.592 834.281 705.657 833.732C707.802 832.59 709.886 831.375 711.832 830.023C715.7 827.313 719.186 824.198 721.696 820.573C723.012 818.796 724.009 816.866 724.853 814.904C725.695 812.94 726.315 810.893 726.622 808.791C727.286 804.6 726.857 800.205 725.515 796.166C724.851 794.154 723.932 792.232 722.839 790.612C721.79 789.044 720.312 787.729 719.816 787.506L719.396 787.317C716.317 785.935 714.941 782.319 716.323 779.24C717.682 776.215 721.205 774.838 724.248 776.102Z" fill="#102770"/>
<path d="M370.005 574.588C351.51 686.096 436.835 793.131 560.584 813.657C684.334 834.182 799.646 760.427 818.142 648.919C836.637 537.411 751.312 430.377 627.562 409.851C503.813 389.325 388.5 463.081 370.005 574.588Z" fill="white"/>
<g opacity="0.3">
<path d="M560.581 813.655C660.302 830.195 754.534 785.516 797.056 709.199C748.056 760.696 670.672 787.657 589.686 774.224C465.931 753.688 380.611 646.654 399.102 535.148C402.686 513.498 409.939 493.275 420.181 474.892C394.332 502.069 376.396 536.075 370.011 574.592C351.506 686.099 436.84 793.132 560.581 813.655Z" fill="#102770"/>
</g>
<path d="M603.269 823.221C588.813 823.283 574.201 822.116 559.584 819.692C432.705 798.646 344.953 688.245 363.97 573.588C363.971 573.588 363.971 573.588 363.971 573.588C382.987 458.93 501.682 382.773 628.562 403.815C689.908 413.99 744.037 445.115 780.976 491.453C818.067 537.98 833.409 594.258 824.176 649.919C814.945 705.582 782.256 753.893 732.13 785.954C694.103 810.277 649.486 823.025 603.269 823.221ZM376.041 575.59C358.127 683.592 441.362 787.68 561.585 807.622C619.941 817.302 678.169 805.947 725.537 775.647C772.706 745.478 803.448 700.117 812.106 647.918C820.765 595.719 806.311 542.861 771.411 499.08C736.359 455.111 684.916 425.564 626.561 415.886C506.331 395.94 393.954 467.588 376.041 575.59Z" fill="#102770"/>
<path d="M530.537 782.052C499.009 782.187 466.828 774.269 437.49 758.665C437.205 758.513 436.933 758.34 436.676 758.146C428.647 752.083 421.012 745.295 413.983 737.972C411.39 735.24 409.16 732.781 407.141 730.43C402.735 725.327 398.516 719.877 394.613 714.243C376.176 687.6 364.817 656.417 361.765 624.065C356.262 565.713 377.325 509.011 419.556 468.496C443.974 445.057 474.188 428.53 506.932 420.704C507.343 420.605 507.762 420.549 508.185 420.538C532.756 419.856 558.641 425.168 585.165 436.315C632.429 456.177 671.815 498.11 690.52 548.484C707.725 594.814 705.963 642.907 685.557 683.903C663.394 728.424 628.097 759.511 583.482 773.804C566.491 779.248 548.62 781.975 530.537 782.052ZM443.663 748.09C486.832 770.912 536.407 776.04 579.749 762.153C621.147 748.89 653.947 719.947 674.604 678.451C693.487 640.515 695.066 595.871 679.052 552.743C661.5 505.48 624.631 466.171 580.425 447.593C555.748 437.223 531.774 432.217 509.157 432.752C478.765 440.132 450.725 455.535 428.027 477.324C388.506 515.239 368.795 568.305 373.946 622.916C376.801 653.185 387.426 682.358 404.673 707.28C408.327 712.554 412.277 717.659 416.413 722.447C418.309 724.655 420.405 726.966 422.834 729.524C429.278 736.24 436.291 742.492 443.663 748.09Z" fill="#102770"/>
<path d="M529.398 761.752C468.119 762.013 409.161 728.189 374.159 672.179C373.933 671.817 373.755 671.428 373.63 671.021L367.761 651.826C367.695 651.607 367.644 651.385 367.608 651.16C367.405 649.866 362.63 619.126 363.134 587.032C363.65 554.132 385.292 515.209 386.213 513.568C386.335 513.35 386.473 513.143 386.626 512.947C440.683 443.966 505.083 424.541 578.038 455.2C619.946 472.812 654.87 509.995 671.458 554.665C686.709 595.733 685.151 638.361 667.069 674.693C640.962 727.151 593.435 758.812 536.675 761.561C534.246 761.678 531.821 761.742 529.398 761.752ZM382.766 667.552C417.33 722.455 476.079 754.732 536.203 751.823C589.335 749.249 633.853 719.553 658.341 670.348C675.209 636.453 676.622 596.575 662.319 558.06C646.649 515.867 613.73 480.776 574.26 464.189C505.968 435.488 445.501 453.813 394.543 518.653C392.506 522.381 373.337 558.245 372.883 587.184C372.419 616.68 376.675 645.902 377.19 649.314L382.766 667.552Z" fill="#102770"/>
<g opacity="0.3">
<path d="M690.212 755.827C721.09 762.366 752.923 735.61 761.293 696.062C761.853 693.434 762.29 690.808 762.603 688.197C748.669 712.051 725.011 725.847 701.859 720.959C673.021 714.859 655.186 681.876 659.77 645.355C655.095 653.342 651.521 662.468 649.417 672.389C641.046 711.938 659.318 749.303 690.212 755.827Z" fill="#102770"/>
</g>
<path d="M379.367 1166.81C363.843 1166.88 349.95 1159.87 337.746 1152.9C326.767 1146.63 313.121 1136.82 307.744 1128.09C300.521 1116.37 301.844 1102.79 311.117 1093.52C322.364 1082.27 345.038 1077.89 370.334 1093.46C373.211 1095.23 374.108 1099 372.337 1101.88C370.565 1104.75 366.799 1105.65 363.921 1103.88C344.415 1091.87 327.36 1094.58 319.769 1102.17C314.412 1107.53 313.826 1114.64 318.162 1121.68C321.543 1127.17 331.851 1135.45 343.811 1142.28C361.242 1152.23 375.09 1157.48 390.255 1152.93C423.7 1142.9 444.048 1076.29 444.25 1075.62C445.221 1072.38 448.635 1070.54 451.866 1071.51C455.102 1072.48 456.939 1075.89 455.97 1079.13C455.072 1082.13 433.514 1152.73 393.771 1164.65C388.825 1166.14 384.021 1166.79 379.367 1166.81Z" fill="#102770"/>
<path d="M355.913 1099.16C353.63 1099.17 351.434 1097.9 350.374 1095.7C324.89 1042.91 341.479 1006.42 347.171 996.496C373.445 950.685 448.33 962.02 451.503 962.522C454.84 963.053 457.114 966.188 456.584 969.524C456.054 972.86 452.933 975.136 449.585 974.605C448.89 974.495 379.854 964.098 357.784 1002.58C352.845 1011.2 338.51 1042.98 361.393 1090.39C362.862 1093.43 361.585 1097.09 358.542 1098.55C357.694 1098.96 356.797 1099.16 355.913 1099.16Z" fill="#102770"/>
<path d="M754.686 478.028C753.615 478.033 752.53 477.756 751.542 477.17C671.115 429.42 613.579 459.379 611.171 460.68C608.199 462.281 604.491 461.18 602.884 458.216C601.276 455.252 602.363 451.55 605.323 449.934C607.966 448.491 671.078 415.17 757.789 466.65C760.693 468.375 761.649 472.128 759.925 475.033C758.787 476.95 756.765 478.019 754.686 478.028Z" fill="#102770"/>
<g opacity="0.4">
<path d="M739.361 1049.77C740.97 1050.17 742.59 1050.36 744.17 1050.35C752.843 1050.31 760.729 1044.53 763.102 1035.81L772.566 1001.08L764.21 998.786L758.875 1018.39C756.502 1027.11 748.602 1032.89 739.943 1032.93C738.35 1032.93 736.743 1032.75 735.134 1032.35C730.991 1031.33 727.482 1029.07 724.91 1026.06C722.395 1036.58 728.839 1047.18 739.361 1049.77Z" fill="#102770"/>
</g>
<path d="M744.312 1055.23C742.301 1055.24 740.251 1055 738.202 1054.5C731.804 1052.92 726.411 1048.95 723.015 1043.3C719.62 1037.65 718.634 1031.03 720.239 1024.63L729.126 989.251C729.444 987.978 730.264 986.888 731.396 986.227C732.53 985.567 733.885 985.389 735.146 985.737L773.854 996.378C776.445 997.091 777.973 999.767 777.266 1002.36L767.81 1037.08C764.829 1048.03 755.117 1055.19 744.312 1055.23ZM737.368 996.46L729.694 1027.01C728.726 1030.87 729.32 1034.87 731.371 1038.27C733.419 1041.68 736.674 1044.08 740.534 1045.03C748.423 1046.98 756.269 1042.36 758.403 1034.52L766.58 1004.49L737.368 996.46Z" fill="#102770"/>
<path d="M445.242 1095.78C443.617 1095.79 442.038 1094.93 441.199 1093.41C440.886 1092.84 409.546 1036.57 373.714 1026.98C354.78 1021.91 347.225 1028.61 346.913 1028.89C345.08 1030.59 342.189 1030.53 340.46 1028.73C338.731 1026.93 338.723 1024.11 340.488 1022.34C340.93 1021.9 351.62 1011.56 376.087 1018.11C415.704 1028.72 447.887 1086.53 449.239 1088.98C450.459 1091.2 449.649 1093.99 447.43 1095.21C446.735 1095.6 445.983 1095.78 445.242 1095.78Z" fill="#102770"/>
<path d="M746.862 612.608C746.862 612.608 750.947 613.472 725.979 608.19C694.137 601.452 662.341 624.262 654.962 659.136C647.583 694.01 667.416 727.743 699.258 734.481C724.989 739.925 720.141 738.899 720.141 738.899" fill="white"/>
<path d="M720.3 739.93L719.94 739.853C719.862 739.836 719.789 739.812 719.721 739.779C719.042 739.664 718.076 739.459 716.689 739.165L699.056 735.434C683.385 732.118 670.068 722.324 661.56 707.854C653.071 693.412 650.389 676.039 654.009 658.935C661.487 623.589 693.859 600.394 726.181 607.236L747.064 611.654C747.066 611.655 747.068 611.655 747.072 611.656L747.312 611.707L747.31 611.719C748.115 611.981 748.134 612.536 748.065 612.863C747.944 613.433 747.886 613.658 746.922 613.553L746.908 613.614L746.661 613.562L746.67 613.519C746.001 613.422 744.98 613.206 743.397 612.872L725.778 609.144C694.515 602.527 663.173 625.048 655.915 659.338C652.398 675.967 654.999 692.845 663.241 706.865C671.468 720.857 684.331 730.326 699.459 733.526C714.58 736.726 719.14 737.691 720.332 737.942C720.336 737.944 720.34 737.944 720.343 737.945C720.359 737.949 720.376 737.952 720.393 737.955C720.614 738.002 720.696 738.02 720.705 738.022L720.702 738.037C721.112 738.171 721.61 738.464 721.459 739.178C721.337 739.745 721.276 739.969 720.315 739.866L720.3 739.93Z" fill="#102770"/>
<g opacity="0.3">
<path d="M699.256 734.477C714.437 737.68 718.975 738.655 720.147 738.894L746.867 612.608C746.158 612.461 743.638 611.927 735.856 610.272L719.293 688.535C718.107 688.282 689.017 649.99 689.017 649.99L684.958 654.424C676.877 663.25 662.393 660.633 657.83 649.571C657.807 649.515 657.784 649.461 657.762 649.408C656.604 652.531 655.665 655.775 654.958 659.141C647.577 694.014 667.408 727.737 699.256 734.477Z" fill="#102770"/>
</g>
<path d="M684.179 665.317C676.8 700.192 692.901 733.135 720.141 738.899C747.381 744.662 775.445 721.064 782.824 686.189C790.203 651.315 774.102 618.372 746.862 612.608C719.622 606.844 691.558 630.443 684.179 665.317Z" fill="white"/>
<path d="M728.557 740.735C725.691 740.747 722.811 740.46 719.94 739.853C706.465 737.002 695.229 727.626 688.302 713.453C681.415 699.361 679.613 682.194 683.227 665.116C686.839 648.038 695.44 633.073 707.445 622.978C719.519 612.825 733.59 608.804 747.064 611.654C760.538 614.505 771.775 623.881 778.701 638.054C785.589 652.146 787.391 669.313 783.777 686.391C777.074 718.075 753.366 740.629 728.557 740.735ZM738.372 612.713C728.125 612.756 717.832 616.791 708.699 624.47C697.026 634.286 688.657 648.864 685.133 665.519C681.61 682.174 683.358 698.894 690.054 712.597C696.713 726.219 707.468 735.221 720.343 737.945C747.022 743.591 774.615 720.28 781.871 685.987C785.394 669.333 783.647 652.613 776.95 638.91C770.292 625.288 759.534 616.286 746.661 613.562C743.918 612.982 741.146 612.701 738.372 612.713Z" fill="#102770"/>
<g opacity="0.3">
<path d="M720.147 738.894C747.375 744.66 775.445 721.068 782.825 686.195C783.319 683.878 783.704 681.562 783.98 679.26C771.694 700.294 750.833 712.459 730.419 708.148C704.99 702.769 689.262 673.686 693.305 641.483C689.182 648.526 686.031 656.572 684.176 665.321C676.795 700.194 692.906 733.142 720.147 738.894Z" fill="#102770"/>
</g>
<path d="M719.233 744.959L718.876 744.884L718.896 744.787C717.77 744.651 716.65 744.412 715.624 744.196L697.992 740.465C680.889 736.846 666.376 726.191 657.128 710.459C647.987 694.909 645.092 676.233 648.977 657.869C657.043 619.753 692.159 594.785 727.245 602.204L748.128 606.623C748.134 606.624 748.139 606.626 748.145 606.627L748.376 606.675L748.374 606.679C752.239 607.625 753.696 611.085 753.095 613.927C752.179 618.259 749.046 618.843 745.868 618.52L745.842 618.645L745.596 618.593L745.617 618.491C744.489 618.359 743.363 618.12 742.333 617.902L724.714 614.174C696.228 608.152 667.617 628.884 660.947 660.403C657.695 675.772 660.085 691.348 667.675 704.259C675.16 716.99 686.826 725.597 700.523 728.495L721.407 732.914C721.417 732.916 721.427 732.917 721.434 732.919L721.764 732.997C726.112 734.103 726.985 737.899 726.489 740.242C725.58 744.546 722.446 745.147 719.26 744.827L719.233 744.959Z" fill="#102770"/>
<path d="M728.537 745.874C725.325 745.887 722.097 745.565 718.876 744.884C703.819 741.698 691.32 731.337 683.682 715.711C676.294 700.593 674.345 682.247 678.195 664.051C682.044 645.856 691.255 629.871 704.136 619.042C717.447 607.846 733.078 603.441 748.128 606.623C763.186 609.81 775.684 620.169 783.322 635.796C790.71 650.914 792.659 669.261 788.81 687.455C781.597 721.547 755.736 745.755 728.537 745.874ZM738.42 617.859C729.363 617.897 720.2 621.518 712.008 628.405C701.209 637.487 693.452 651.045 690.165 666.583C690.165 666.584 690.165 666.584 690.165 666.584C686.877 682.123 688.479 697.661 694.674 710.338C700.621 722.507 710.116 730.524 721.407 732.914C745.292 737.961 770.17 716.442 776.839 684.922C780.127 669.385 778.526 653.846 772.329 641.168C766.381 628.999 756.888 620.982 745.597 618.593C743.226 618.09 740.827 617.848 738.42 617.859Z" fill="#102770"/>
<path d="M394.921 939.423L483.399 978.221C485.248 979.032 487.326 978.356 487.86 976.771L523.371 871.226C523.904 869.641 522.657 867.846 520.694 867.374L426.758 844.799C414.429 841.836 402.542 847.138 399.191 857.095L380.394 912.964C377.044 922.921 383.308 934.331 394.921 939.423Z" fill="white"/>
<g opacity="0.3">
<path d="M398.564 858.941L379.766 914.811C376.416 924.769 382.686 936.175 394.308 941.266L482.771 980.067C484.621 980.874 486.713 980.194 487.242 978.62L501.056 937.563L410.934 908.79C398.844 904.925 391.433 894.224 393.734 883.987L400.077 855.651C399.455 856.677 398.954 857.782 398.564 858.941Z" fill="#102770"/>
</g>
<path d="M485.06 984.683C483.669 984.689 482.264 984.403 480.945 983.825L392.464 945.025C377.902 938.639 370.221 924.017 374.597 911.012L393.393 855.144C397.767 842.141 412.728 835.133 428.187 838.851L522.123 861.427C524.857 862.083 527.179 863.822 528.493 866.198C529.705 868.388 529.946 870.867 529.169 873.175L493.657 978.721C492.88 981.031 491.192 982.86 488.903 983.872C487.693 984.408 486.382 984.678 485.06 984.683ZM397.377 933.82L483.195 971.453L516.439 872.644L425.328 850.746C416.076 848.525 407.329 852.091 404.988 859.046L386.192 914.914C383.852 921.87 388.66 929.998 397.377 933.82Z" fill="#102770"/>
<path d="M508.109 986.888L488.833 980.402C487.744 980.036 487.158 978.856 487.524 977.767L523.706 870.229C524.072 869.14 525.252 868.554 526.342 868.921L545.617 875.406C550.598 877.082 553.277 882.477 551.601 887.458L520.16 980.904C518.485 985.885 513.089 988.564 508.109 986.888Z" fill="white"/>
<g opacity="0.3">
<path d="M501.554 936.084L487.567 977.656C487.177 978.815 487.792 980.055 488.952 980.445L507.592 986.717C512.861 988.49 518.557 985.648 520.324 980.395L534.317 938.808C532.544 944.076 526.848 946.919 521.579 945.146L502.939 938.874C501.779 938.484 501.169 937.227 501.554 936.084Z" fill="#102770"/>
</g>
<path d="M511.196 993.503C509.525 993.511 507.828 993.248 506.158 992.686L486.883 986.2C484.808 985.503 483.129 984.037 482.155 982.077C481.18 980.116 481.028 977.893 481.727 975.816L517.909 868.278C518.605 866.204 520.07 864.525 522.033 863.551C523.993 862.576 526.217 862.421 528.293 863.124L547.568 869.608C551.526 870.94 554.727 873.733 556.585 877.472C558.441 881.212 558.73 885.451 557.398 889.409L525.958 982.855C523.772 989.355 517.7 993.476 511.196 993.503ZM510.06 981.091C510.917 981.378 511.84 981.316 512.654 980.913C513.466 980.51 514.074 979.813 514.363 978.953L545.803 885.507C546.092 884.647 546.029 883.726 545.626 882.913C545.223 882.101 544.526 881.493 543.666 881.204L528.217 876.007L494.609 975.891L510.06 981.091Z" fill="#102770"/>
<path d="M669.372 964.476C643.321 959.892 584.695 947.731 539.031 924.697C531.507 920.902 522.384 924.731 519.857 932.77L519.564 933.702C517.593 939.975 520.367 946.768 526.178 949.845C573.157 974.718 635.552 991.425 662.299 997.908C669.461 999.644 676.641 995.154 678.219 987.955L679.914 980.22C681.513 972.926 676.728 965.771 669.372 964.476Z" fill="white"/>
<g opacity="0.35">
<path d="M519.861 932.764L519.566 933.697C517.602 939.971 520.369 946.768 526.176 949.847C573.162 974.712 635.561 991.427 662.299 997.914C669.464 999.642 676.636 995.157 678.209 987.959L679.912 980.212C679.962 980.008 679.996 979.799 680.024 979.605C676.908 983.112 671.993 984.834 667.093 983.665C640.355 977.177 577.951 960.479 530.971 935.597C527.322 933.669 524.871 930.262 524.053 926.445C522.152 928.038 520.67 930.195 519.861 932.764Z" fill="#102770"/>
</g>
<path d="M665.518 1004.4C663.968 1004.41 662.406 1004.23 660.858 1003.85C635.491 997.705 571.312 980.663 523.316 955.251C514.902 950.795 510.87 940.961 513.728 931.867L514.022 930.934C515.763 925.396 519.828 920.926 525.174 918.668C530.532 916.406 536.587 916.611 541.786 919.236C587.339 942.214 646.926 954.315 670.431 958.452C675.644 959.369 680.135 962.294 683.079 966.688C686.027 971.085 687.024 976.357 685.89 981.53L684.194 989.266C683.077 994.367 680.021 998.702 675.594 1001.47C672.518 1003.39 669.05 1004.39 665.518 1004.4ZM532.831 929.345C531.847 929.35 530.862 929.547 529.933 929.94C527.871 930.81 526.365 932.466 525.693 934.605L525.399 935.538C524.31 939.001 525.842 942.745 529.041 944.439C575.814 969.204 638.821 985.923 663.739 991.963C665.588 992.411 667.497 992.103 669.11 991.095C670.723 990.087 671.836 988.507 672.243 986.647L673.939 978.911C674.353 977.023 673.989 975.101 672.916 973.498C671.844 971.899 670.21 970.835 668.312 970.502C644.273 966.271 583.284 953.871 536.276 930.16C535.192 929.613 534.012 929.34 532.831 929.345Z" fill="#102770"/>
<path d="M673.321 860.229C673.321 860.229 783.649 933.582 748.337 1032.67C731.554 1079.76 686.627 1059.97 677.068 1043.39C660.49 1014.65 671.691 933.831 617.254 926.545" fill="white"/>
<path d="M713.172 1063C697.568 1063.07 681.827 1053.59 676.223 1043.88C670.845 1034.56 668.339 1019.81 665.685 1004.2C659.961 970.537 653.475 932.377 617.126 927.511C616.592 927.44 616.217 926.95 616.289 926.416C616.359 925.882 616.868 925.504 617.384 925.579C655.157 930.635 661.772 969.546 667.609 1003.88C670.232 1019.31 672.709 1033.88 677.913 1042.91C683.479 1052.56 700.555 1062.32 716.177 1060.91C726.106 1060.01 739.586 1054.32 747.418 1032.34C765.508 981.584 744.302 937.754 723.325 909.922C700.525 879.668 673.057 861.223 672.782 861.04C672.333 860.742 672.211 860.138 672.51 859.689C672.81 859.239 673.419 859.121 673.86 859.417C674.137 859.601 701.848 878.2 724.849 908.704C746.132 936.928 767.642 981.401 749.256 1033C741.078 1055.94 726.85 1061.9 716.355 1062.85C715.297 1062.94 714.233 1062.99 713.172 1063Z" fill="#102770"/>
<g opacity="0.4">
<path d="M750.486 1026.06C749.853 1028.25 749.128 1030.45 748.343 1032.67C731.552 1079.76 686.628 1059.97 677.061 1043.39C660.483 1014.65 671.685 933.838 617.256 926.545C627.498 916.262 643.892 915.13 655.259 924.154C686.02 948.573 678.981 993.161 692.161 1016.01C699.803 1029.27 730.088 1044.59 750.486 1026.06Z" fill="#102770"/>
</g>
<path d="M713.125 1068.14C695.249 1068.22 678.084 1057.4 671.77 1046.45C665.93 1036.33 663.348 1021.14 660.615 1005.07C654.925 971.588 649.04 936.97 616.443 932.607C613.095 932.159 610.744 929.081 611.192 925.733C611.64 922.386 614.713 920.033 618.067 920.481C659.591 926.039 666.847 968.72 672.678 1003.02C675.221 1017.98 677.624 1032.11 682.366 1040.34C686.596 1047.67 701.357 1057.1 715.714 1055.78C727.982 1054.67 737.018 1046.2 742.575 1030.61C775.897 937.111 670.998 866.029 669.934 865.322C667.121 863.451 666.356 859.655 668.228 856.841C670.095 854.029 673.891 853.262 676.708 855.133C677.869 855.907 705.429 874.409 728.955 905.607C760.568 947.529 769.262 992.176 754.098 1034.72C744.529 1061.58 726.633 1067.08 716.818 1067.97C715.587 1068.08 714.353 1068.14 713.125 1068.14Z" fill="#102770"/>
<path d="M378.293 669.595C448.164 781.403 604.523 789.427 662.705 672.521C702.288 592.984 654.974 492.82 576.15 459.694C518.78 435.585 452.224 437.144 390.464 515.954C390.464 515.954 368.511 555.063 368.008 587.108C367.505 619.152 372.424 650.401 372.424 650.401L378.293 669.595Z" fill="#102770"/>
<g opacity="0.4">
<path d="M605.309 606.801C603.413 622.557 612.836 636.649 626.357 638.276C639.877 639.903 652.375 628.45 654.272 612.694C656.168 596.938 646.744 582.847 633.224 581.219C619.703 579.592 607.205 591.046 605.309 606.801Z" fill="white"/>
<path d="M629.003 640.378C628.049 640.382 627.091 640.328 626.123 640.212C611.557 638.458 601.352 623.366 603.373 606.569C604.346 598.486 607.974 591.2 613.59 586.054C619.291 580.831 626.336 578.423 633.458 579.284C640.57 580.139 646.852 584.15 651.149 590.575C655.384 596.907 657.18 604.844 656.207 612.927C654.32 628.61 642.428 640.321 629.003 640.378ZM630.569 583.015C625.432 583.037 620.415 585.09 616.225 588.93C611.296 593.447 608.108 599.877 607.245 607.034C605.481 621.697 614.158 634.843 626.59 636.34C639.024 637.837 650.571 627.124 652.335 612.462C653.196 605.303 651.624 598.3 647.908 592.742C644.253 587.278 638.956 583.874 632.99 583.156C632.183 583.058 631.375 583.012 630.569 583.015Z" fill="#102770"/>
</g>
<g opacity="0.4">
<path d="M613.376 661.22C613.145 667.769 617.514 673.239 623.134 673.437C628.754 673.636 633.497 668.487 633.728 661.938C633.959 655.39 629.59 649.92 623.97 649.721C618.35 649.523 613.607 654.671 613.376 661.22Z" fill="white"/>
<path d="M623.49 675.392C623.35 675.393 623.208 675.391 623.066 675.386C616.38 675.149 611.16 668.763 611.428 661.152C611.556 657.519 612.903 654.134 615.219 651.62C617.611 649.023 620.719 647.661 624.041 647.774C627.334 647.889 630.363 649.473 632.566 652.232C634.699 654.903 635.805 658.374 635.676 662.007C635.412 669.457 629.988 675.365 623.49 675.392ZM623.629 651.667C621.586 651.675 619.628 652.59 618.087 654.262C616.402 656.092 615.42 658.587 615.325 661.29C615.133 666.753 618.666 671.328 623.203 671.489C627.696 671.578 631.585 667.334 631.779 661.87C631.874 659.168 631.071 656.609 629.518 654.666C628.037 652.81 626.042 651.746 623.903 651.67C623.812 651.668 623.72 651.666 623.629 651.667Z" fill="#102770"/>
</g>
<g opacity="0.4">
<path d="M604.085 510.531C604.085 510.531 524.914 483.047 463.849 509.612C463.785 509.64 463.721 509.668 463.657 509.696C450.809 515.298 439.71 524.279 431.457 535.607C420.543 550.588 415.216 562.51 410.931 573.187C397.916 605.663 397.892 623.316 397.892 623.316C386.297 598.753 383.696 575.101 394.269 547.942C395.318 545.268 407.298 521.356 412.738 513.935C429.131 491.544 455.063 468.875 492.414 466.315C562.255 461.528 608.12 508.212 604.085 510.531Z" fill="white"/>
<path d="M399.809 631.942L396.128 624.149C383.559 597.52 382.39 573.079 392.452 547.234C393.491 544.584 405.492 520.521 411.164 512.782C426.232 492.201 452.536 467.094 492.281 464.369C557.513 459.886 603.477 500.308 606.113 508.978C606.617 510.633 605.898 511.739 605.058 512.222L604.287 512.665L603.446 512.374C602.66 512.101 524.267 485.453 464.627 511.399L463.657 509.696L464.437 511.484C451.979 516.916 441.12 525.654 433.033 536.755C421.978 551.928 416.762 563.891 412.741 573.913C400.056 605.566 399.842 623.147 399.842 623.321L399.809 631.942ZM501.749 467.925C498.733 467.938 495.665 468.046 492.547 468.26C454.299 470.882 428.89 495.171 414.311 515.087C408.943 522.41 397.073 546.133 396.084 548.654C387.175 571.537 387.298 592.476 396.656 615.643C397.83 607.471 400.931 592.898 409.121 572.461C413.231 562.221 418.562 549.994 429.881 534.458C438.376 522.798 449.786 513.617 462.877 507.908L463.071 507.824C516.225 484.704 583.573 502.281 600.652 507.405C592.324 497.36 555.013 467.698 501.749 467.925Z" fill="#102770"/>
</g>
</g>
</g>
<defs>
<clipPath id="clip0_255_85">
<rect width="1500" height="1500" fill="white"/>
</clipPath>
</defs>
</svg>
