<svg width="72" height="72" viewBox="0 0 72 72" fill="none" xmlns="http://www.w3.org/2000/svg">
<g clip-path="url(#clip0_223_42)">
<path d="M35.9744 62.8635L18.882 58.5372L15.073 19.5854H56.927L53.114 58.5313L35.9744 62.8635Z" fill="black"/>
<path d="M49.8497 56.0513L53.1079 22.7703H36V59.552L49.8497 56.0513Z" fill="#464646"/>
<path d="M23.8051 37.2171L24.2746 41.9944H36V37.2171H23.8051ZM22.8614 27.5479L23.3377 32.3251H36V27.5479H22.8614ZM36 49.6243L35.977 49.6298L30.1417 48.1932L29.7686 44.3831H24.5087L25.2428 51.8842L35.9759 54.6007L36 54.5947V49.6243Z" fill="#EBEBEB"/>
<path d="M24.9232 9H31.2691V11.4197H27.577V13.8394H31.2694V16.2589H24.9232V9ZM32.5384 9H38.8845V11.1041H35.1923V11.5248H38.8845V16.3642H32.5386V14.1547H36.2308V13.7339H32.5383L32.5384 9ZM40.1539 9H46.5V11.1041H42.8078V11.5248H46.5V16.3642H40.1539V14.1547H43.8461V13.7339H40.1541V9H40.1539Z" fill="black"/>
<path d="M48.1615 37.2171L49.1073 27.5479H35.982V32.3251H43.3651L42.8883 37.2171H35.982V41.9944H42.4341L41.8257 48.1902L35.9818 49.6283V54.5984L46.7235 51.8842L46.8022 51.077L48.0337 38.5L48.1615 37.2171Z" fill="white"/>
</g>
<defs>
<clipPath id="clip0_223_42">
<rect width="42" height="54" fill="white" transform="translate(15 9)"/>
</clipPath>
</defs>
</svg>
