<svg width="72" height="72" viewBox="0 0 72 72" fill="none" xmlns="http://www.w3.org/2000/svg">
<g clip-path="url(#clip0_220_40)">
<path d="M57.2075 18.5857L53.369 57.5315L36.1148 61.8638L18.9081 57.5375L15.0736 18.5857H57.2075Z" fill="#1A1A1A"/>
<path d="M36.1404 58.5523L50.0827 55.0516L53.3628 21.7705H36.1404V58.5523Z" fill="#565656"/>
<path d="M28.6786 31.3254H36.1405V26.5481H22.914L23.0402 27.8297L24.3367 40.9947H36.1405V36.2174H29.1607L28.6786 31.3254ZM29.8674 43.3834H24.5724L25.3113 50.8844L36.1162 53.6009L36.1405 53.5949V48.6245L36.1174 48.6301L30.243 47.1934L29.8674 43.3834Z" fill="#EBEBEB"/>
<path d="M18.9935 8H21.6741V10.3986H24.1262V8H26.8069V15.2635H24.1264V12.8313H21.6742V15.2635H18.9937L18.9935 8ZM30.3317 10.4088H27.9723V8H35.3737V10.4088H33.0128V15.2635H30.3322V10.4088H30.3317ZM36.5483 8H39.3433L41.0626 10.5522L42.7803 8H45.5765V15.2635H42.9068V11.6633L41.0626 14.2459H41.0164L39.1711 11.6633V15.2635H36.5483V8ZM46.9105 8H49.5918V12.8627H53.3614V15.2635H46.9103V8H46.9105Z" fill="black"/>
<path d="M36.1223 40.9947H42.6175L42.0051 47.1905L36.1221 48.6286V53.5987L46.9356 50.8844L47.0149 50.0773L48.2546 37.5002L48.3832 36.2174H36.1223V40.9947ZM36.1223 31.3137V31.3254H48.8632L48.9689 30.2517L49.2094 27.8297L49.3354 26.5481H36.1223V31.3137Z" fill="white"/>
</g>
<defs>
<clipPath id="clip0_220_40">
<rect width="42.2809" height="54" fill="white" transform="translate(15 8)"/>
</clipPath>
</defs>
</svg>
