<svg width="72" height="72" viewBox="0 0 72 72" fill="none" xmlns="http://www.w3.org/2000/svg">
<g filter="url(#filter0_b_219_39)">
</g>
<path d="M16.8125 15.8125H56.1875V55.1875H16.8125V15.8125Z" fill="#171717"/>
<path d="M43.2627 46.5741C43.5982 47.2556 44.1194 47.8284 44.7663 48.2265C45.4132 48.6246 46.1594 48.8317 46.9189 48.8241C48.4517 48.8241 49.4319 48.0577 49.4319 46.996C49.4319 45.7304 48.425 45.2776 46.7375 44.5393L45.8122 44.1427C43.1403 43.0051 41.3684 41.5805 41.3684 38.5683C41.3684 35.7938 43.4778 33.6802 46.7867 33.6802C47.8579 33.6029 48.9281 33.8426 49.8639 34.3695C50.7997 34.8964 51.5596 35.6872 52.0489 36.6432L49.1563 38.4924C48.9678 38.0184 48.6398 37.6128 48.2156 37.3296C47.7914 37.0463 47.2911 36.8986 46.7811 36.9062C46.5586 36.8839 46.3339 36.9082 46.1213 36.9776C45.9086 37.0469 45.7128 37.1598 45.5463 37.3091C45.3797 37.4583 45.246 37.6406 45.1538 37.8443C45.0616 38.0481 45.0128 38.2688 45.0106 38.4924C45.0106 39.6019 45.6983 40.0519 47.2859 40.7424L48.2113 41.139C51.3556 42.4876 53.1331 43.8615 53.1331 46.951C53.1331 50.2824 50.5161 52.1077 47.0019 52.1077C45.6326 52.195 44.2674 51.8841 43.0709 51.2126C41.8744 50.5411 40.8978 49.5377 40.2589 48.3235L43.2627 46.5741ZM30.1916 46.8948C30.7724 47.9255 31.3011 48.7974 32.5724 48.7974C33.7874 48.7974 34.5552 48.3221 34.5552 46.4729V33.8912H38.255V46.5221C38.255 50.3527 36.005 52.0965 32.7299 52.0965C31.5722 52.1598 30.4224 51.8712 29.4318 51.2689C28.4411 50.6665 27.6559 49.7784 27.1794 48.7215L30.1916 46.8948Z" fill="white"/>
<defs>
<filter id="filter0_b_219_39" x="-22" y="-22" width="116" height="116" filterUnits="userSpaceOnUse" color-interpolation-filters="sRGB">
<feFlood flood-opacity="0" result="BackgroundImageFix"/>
<feGaussianBlur in="BackgroundImageFix" stdDeviation="11"/>
<feComposite in2="SourceAlpha" operator="in" result="effect1_backgroundBlur_219_39"/>
<feBlend mode="normal" in="SourceGraphic" in2="effect1_backgroundBlur_219_39" result="shape"/>
</filter>
</defs>
</svg>
