<svg width="200" height="107" viewBox="0 0 200 107" fill="none" xmlns="http://www.w3.org/2000/svg">
<path d="M1 48.5615V48.5615C31.5168 30.7601 69.2525 30.7601 99.7692 48.5615V48.5615V48.5615C130.286 66.363 168.022 66.363 198.538 48.5615V48.5615" stroke="white" stroke-width="2.46923" stroke-linecap="round" stroke-linejoin="round"/>
<path d="M1 38.6846V38.6846C31.5168 20.8832 69.2525 20.8832 99.7692 38.6846V38.6846V38.6846C130.286 56.4861 168.022 56.4861 198.538 38.6846V38.6846" stroke="white" stroke-width="2.46923" stroke-linecap="round" stroke-linejoin="round"/>
<path d="M1 28.8077V28.8077C31.5168 11.0062 69.2525 11.0062 99.7692 28.8077V28.8077V28.8077C130.286 46.6091 168.022 46.6091 198.538 28.8077V28.8077" stroke="white" stroke-width="2.46923" stroke-linecap="round" stroke-linejoin="round"/>
<path d="M1 58.4385V58.4385C31.5168 40.637 69.2525 40.637 99.7692 58.4385V58.4385V58.4385C130.286 76.2399 168.022 76.2399 198.538 58.4385V58.4385" stroke="white" stroke-width="2.46923" stroke-linecap="round" stroke-linejoin="round"/>
<path d="M1 68.3154V68.3154C31.5168 50.5139 69.2525 50.5139 99.7692 68.3154V68.3154V68.3154C130.286 86.1168 168.022 86.1168 198.538 68.3154V68.3154" stroke="white" stroke-width="2.46923" stroke-linecap="round" stroke-linejoin="round"/>
<path d="M1 78.1923V78.1923C31.5168 60.3909 69.2525 60.3909 99.7692 78.1923V78.1923V78.1923C130.286 95.9938 168.022 95.9938 198.538 78.1923V78.1923" stroke="white" stroke-width="2.46923" stroke-linecap="round" stroke-linejoin="round"/>
</svg>
