<svg width="72" height="72" viewBox="0 0 72 72" fill="none" xmlns="http://www.w3.org/2000/svg">
<path d="M43.7279 18.3679C43.7279 18.3679 43.2168 18.5212 42.3479 18.8023C42.1946 18.3423 41.9901 17.7546 41.6835 17.1923C40.7124 15.3268 39.2812 14.3556 37.5435 14.3301C37.4157 14.3301 37.3135 14.3301 37.1857 14.3556C37.1346 14.3045 37.0835 14.2279 37.0323 14.1768C36.2912 13.359 35.3201 12.9756 34.1701 13.0012C31.9468 13.0779 29.7234 14.6879 27.909 17.5501C26.6312 19.569 25.6856 22.099 25.4045 24.0413C22.8489 24.8335 21.06 25.3957 21.0089 25.3957C19.7056 25.8046 19.68 25.8557 19.5011 27.0568C19.3734 27.9768 16 54.1459 16 54.1459L44.0602 59.0015V18.3168C43.9324 18.3168 43.8046 18.3423 43.7279 18.3679ZM37.2368 20.3868C35.7546 20.8468 34.119 21.3579 32.509 21.8435C32.969 20.0801 33.8379 18.3423 34.9112 17.1923C35.3201 16.7579 35.8568 16.2979 36.5212 16.0168C37.1346 17.3201 37.2623 19.1346 37.2368 20.3868ZM34.1957 14.4834C34.7068 14.4834 35.1668 14.5857 35.5501 14.8412C34.9368 15.1479 34.3745 15.6079 33.8123 16.1957C32.4068 17.7034 31.3079 20.0801 30.8734 22.3546C29.519 22.7635 28.2156 23.1724 26.989 23.5557C27.7556 19.9523 30.7712 14.5857 34.1957 14.4834ZM29.8512 34.9024C30.0045 37.2791 36.2912 37.8158 36.649 43.4125C36.9301 47.8081 34.3234 50.8236 30.5412 51.0536C26.0434 51.3348 23.5389 48.677 23.5389 48.677L24.4845 44.6136C24.4845 44.6136 26.989 46.5047 28.9823 46.3769C30.2856 46.3003 30.7456 45.2269 30.7201 44.4858C30.5156 41.368 25.4045 41.5469 25.0978 36.4358C24.8167 32.1169 27.6534 27.7724 33.889 27.3635C36.3168 27.2102 37.5435 27.8235 37.5435 27.8235L36.1123 33.1646C36.1123 33.1646 34.5279 32.4491 32.6368 32.5513C29.8767 32.7302 29.8256 34.468 29.8512 34.9024ZM38.719 19.9268C38.6935 18.8023 38.5657 17.2179 38.029 15.8634C39.7157 16.1957 40.559 18.0868 40.9168 19.2368C40.2779 19.4412 39.5368 19.6712 38.719 19.9268ZM44.9802 58.8992L56.6336 56.0114C56.6336 56.0114 51.6246 22.1246 51.5991 21.8946C51.5735 21.6646 51.3691 21.5368 51.1902 21.5112C51.0113 21.4857 47.7402 21.4346 47.7402 21.4346C47.7402 21.4346 45.7468 19.4923 44.9802 18.7512V58.8992Z" fill="black"/>
</svg>
