<svg width="72" height="72" viewBox="0 0 72 72" fill="none" xmlns="http://www.w3.org/2000/svg">
<path d="M9 26.0237C9 26.0237 11.1008 25.7587 12.5015 26.9995C13.366 27.7648 13.6178 28.9848 13.6178 28.9848L16.4781 40.1209L18.8571 31.0066C19.0881 30.0379 19.5061 28.8397 20.1664 28.0299C21.0092 26.9986 22.72 26.9334 22.9024 26.9334C23.0849 26.9334 24.7947 26.9987 25.6367 28.0299C26.297 28.8397 26.7149 30.037 26.9469 31.0066L29.3258 40.1209L32.1852 28.9847C32.1852 28.9847 32.4381 27.7649 33.3026 26.9995C34.7032 25.7586 36.8033 26.0236 36.8033 26.0236L31.326 46.8353C31.326 46.8353 29.5197 46.9665 28.6152 46.5034C27.4275 45.8951 26.8637 45.426 26.1443 42.5936C25.7807 41.1449 25.4215 39.695 25.0669 38.2441L24.9322 37.6975C24.5924 36.3092 24.2506 34.9214 23.9069 33.534L23.7765 33.0127C23.6567 32.5401 23.5742 32.2221 23.5447 32.1265C23.4638 31.8649 23.3673 31.242 22.9016 31.242C22.4464 31.242 22.3412 31.8658 22.2587 32.1265C22.2283 32.2221 22.1458 32.5391 22.0267 33.0126L21.8963 33.534C21.6189 34.649 21.3438 35.7646 21.071 36.8808L20.9372 37.4247C20.5164 39.1492 20.0907 40.8724 19.6599 42.5943C18.9405 45.426 18.3758 45.8961 17.188 46.5034C16.2836 46.9665 14.4772 46.8353 14.4772 46.8353L9 26.0237ZM42.0147 29.4757V30.2272H42.0164V42.7901C42.0068 45.368 41.7575 45.9406 40.6732 46.534C39.8304 46.9953 38.541 46.8208 38.541 46.8208V32.7476C38.541 32.0413 38.7599 31.5782 39.5671 31.1629C40.0493 30.9144 40.4985 30.7241 40.9659 30.4426C41.6046 30.0603 41.9286 29.6059 41.9998 29.4981L42.0147 29.4757ZM43.7541 26.0932C43.7541 26.0932 46.5839 25.5919 47.9854 26.9186C48.7735 27.665 49.6449 28.937 49.8422 29.2307L49.8795 29.2862L49.8838 29.2932L52.3514 32.9911C52.4705 33.1831 52.6268 33.3925 52.8771 33.3925C53.1264 33.3925 53.2837 33.1839 53.4035 32.9911L55.8703 29.2932L55.8746 29.2862L55.9119 29.2307C56.1091 28.937 56.9806 27.665 57.7695 26.9178C59.1701 25.5919 62 26.0924 62 26.0924L55.2951 36.463L61.9818 46.7997C61.9818 46.7997 59.0868 47.1872 57.6853 45.8605C56.7886 45.0125 55.8702 43.6319 55.8702 43.6319L53.4027 39.9349C53.2837 39.742 53.1263 39.5326 52.8771 39.5326C52.6269 39.5326 52.4705 39.7412 52.3505 39.9349L49.8838 43.6319C49.8838 43.6319 49.0158 45.0125 48.1201 45.8605C46.7186 47.1872 43.7714 46.7997 43.7714 46.7997L50.4582 36.463L43.7541 26.0932ZM42.0077 26.0002H42.0164C42.0164 27.3818 41.886 28.2029 41.052 28.8406C40.6648 29.1381 40.2378 29.38 39.7835 29.559C39.3228 29.7388 38.9009 30.0055 38.541 30.3446C38.541 27.8283 38.9085 26.9169 39.8964 26.3774C40.5107 26.042 41.5194 26.0037 41.8817 26.0002H42.0077Z" fill="black"/>
</svg>
