<svg width="72" height="72" viewBox="0 0 72 72" fill="none" xmlns="http://www.w3.org/2000/svg">
<path d="M17.872 28.6431L27.0806 53.8649C20.6391 50.744 16.2026 44.1391 16.2026 36.5C16.2026 33.6966 16.8014 31.0474 17.872 28.6431ZM48.5282 35.5292C48.5282 33.1431 47.6754 31.4919 46.9405 30.2036C45.9607 28.6159 45.0444 27.2641 45.0444 25.6764C45.0444 23.8982 46.3871 22.247 48.2833 22.247C48.3649 22.247 48.4466 22.256 48.5373 22.2651C45.0988 19.1169 40.5262 17.1935 35.5 17.1935C28.7591 17.1935 22.8256 20.6502 19.369 25.8942C19.8226 25.9123 20.249 25.9214 20.6119 25.9214C22.626 25.9214 25.756 25.6764 25.756 25.6764C26.7994 25.6129 26.9173 27.1462 25.8831 27.2641C25.8831 27.2641 24.8397 27.3821 23.6784 27.4456L30.7097 48.3488L34.9375 35.6835L31.9345 27.4456C30.8911 27.3821 29.9113 27.2641 29.9113 27.2641C28.8679 27.2006 28.995 25.6129 30.0292 25.6764C30.0292 25.6764 33.2137 25.9214 35.1099 25.9214C37.124 25.9214 40.254 25.6764 40.254 25.6764C41.2974 25.6129 41.4153 27.1462 40.381 27.2641C40.381 27.2641 39.3377 27.3821 38.1764 27.4456L45.1532 48.1946L47.0766 41.7621C47.8931 39.0948 48.5282 37.1804 48.5282 35.5292ZM35.8357 38.1875L30.0474 55.0171C31.7802 55.5252 33.6038 55.8065 35.5 55.8065C37.75 55.8065 39.9002 55.4163 41.9052 54.7087C41.8508 54.627 41.8054 54.5363 41.7692 54.4456L35.8357 38.1875ZM52.4385 27.2369C52.5202 27.8538 52.5655 28.5071 52.5655 29.2238C52.5655 31.1835 52.2026 33.379 51.0958 36.1371L45.1986 53.1845C50.9415 49.8367 54.7974 43.622 54.7974 36.5C54.7974 33.1431 53.9446 29.9859 52.4385 27.2369ZM58 36.5C58 48.9113 47.9022 59 35.5 59C23.0887 59 13 48.9022 13 36.5C13 24.0887 23.0887 14 35.5 14C47.9022 14 58 24.0887 58 36.5ZM56.9657 36.5C56.9657 24.6603 47.3306 15.0343 35.5 15.0343C23.6603 15.0343 14.0343 24.6603 14.0343 36.5C14.0343 48.3397 23.6694 57.9657 35.5 57.9657C47.3397 57.9657 56.9657 48.3397 56.9657 36.5Z" fill="black"/>
</svg>
